PathFileType  4	(X/Y/Z) C:\Users\wagnerel85475\Documents\Thesis\opencap-core\Data\3375ffbc-daeb-4a43-b4f7-ac9899cd4c71\MarkerData\PreAugmentation
DataRate	CameraRate	NumFrames	NumMarkers	Units	OrigDataRate	OrigDataStartFrame	OrigNumFrames
60.0	60.0	9	20	m	60.0	309	823
Frame#	Time	Neck			RShoulder			RElbow			RWrist			LShoulder			LElbow			LWrist			midHip			RHip			RKnee			RAnkle			LHip			LKnee			LAnkle			LBigToe			LSmallToe			LHeel			RBigToe			RSmallToe			RHeel			
		X1	Y1	Z1	X2	Y2	Z2	X3	Y3	Z3	X4	Y4	Z4	X5	Y5	Z5	X6	Y6	Z6	X7	Y7	Z7	X8	Y8	Z8	X9	Y9	Z9	X10	Y10	Z10	X11	Y11	Z11	X12	Y12	Z12	X13	Y13	Z13	X14	Y14	Z14	X15	Y15	Z15	X16	Y16	Z16	X17	Y17	Z17	X18	Y18	Z18	X19	Y19	Z19	X20	Y20	Z20	

309	5.1333333	-0.9634600	1.3581700	-0.0437100	-0.9276900	1.3630600	0.1371600	-1.0199700	1.0430700	0.2016600	-0.9601900	0.7648800	0.2750100	-1.0029900	1.3589000	-0.2341000	-1.0300300	1.0432600	-0.3160400	-0.8781400	0.7981300	-0.3573900	-0.9090300	0.7942000	-0.0365800	-0.8961000	0.7952400	0.0684800	-1.0043800	0.2981400	0.1060900	-1.0936300	-0.1926600	0.1599100	-0.9532600	0.7866400	-0.1527100	-1.0259300	0.2874900	-0.1505100	-1.0218100	-0.1881800	-0.2153600	-0.8104500	-0.2448500	-0.2369000	-0.8684000	-0.2370100	-0.2807900	-1.1177800	-0.2514100	-0.1846300	-0.8605400	-0.2628500	0.1959500	-0.8893300	-0.2390300	0.2420400	-1.1121400	-0.2515800	0.1444600
310	5.1500000	-0.9584400	1.3581000	-0.0424400	-0.9281700	1.3630600	0.1370700	-1.0200100	1.0431900	0.2016700	-0.9601600	0.7648600	0.2750000	-1.0029200	1.3588500	-0.2340700	-1.0301700	1.0432800	-0.3160300	-0.8805900	0.8042500	-0.3607000	-0.9054300	0.7945000	-0.0356900	-0.8960400	0.7952700	0.0684800	-1.0042300	0.2980500	0.1061100	-1.0936400	-0.1926800	0.1599100	-0.9526600	0.7866200	-0.1529200	-1.0265500	0.2898400	-0.1503700	-1.0217900	-0.1881700	-0.2153600	-0.8101500	-0.2448100	-0.2368100	-0.8684600	-0.2370100	-0.2807900	-1.1177800	-0.2512200	-0.1846100	-0.8609800	-0.2630200	0.1961500	-0.8883000	-0.2387400	0.2416200	-1.1125700	-0.2516900	0.1443700
311	5.1666667	-0.9572900	1.3581200	-0.0421200	-0.9282800	1.3630900	0.1370800	-1.0200200	1.0433100	0.2016800	-0.9601300	0.7648800	0.2749900	-1.0029000	1.3588200	-0.2340600	-1.0300300	1.0433500	-0.3158800	-0.8797600	0.8134100	-0.3638100	-0.9016700	0.7948500	-0.0347100	-0.8960300	0.7952800	0.0685000	-1.0042000	0.2984500	0.1061500	-1.0936300	-0.1926800	0.1599000	-0.9542900	0.7863900	-0.1523400	-1.0269900	0.2905600	-0.1502800	-1.0217700	-0.1881700	-0.2153500	-0.8098600	-0.2445000	-0.2366700	-0.8685200	-0.2370400	-0.2807900	-1.1177400	-0.2511700	-0.1845800	-0.8599100	-0.2627400	0.1957300	-0.8887700	-0.2388700	0.2418000	-1.1127100	-0.2517000	0.1443500
312	5.1833333	-0.9578900	1.3580700	-0.0422400	-0.9283100	1.3630600	0.1371300	-1.0201000	1.0428700	0.2017200	-0.9600600	0.7648400	0.2749700	-1.0029300	1.3588500	-0.2340400	-1.0299200	1.0449100	-0.3157700	-0.8772500	0.8256800	-0.3653800	-0.9003600	0.7949300	-0.0343100	-0.8960700	0.7952700	0.0685300	-1.0043600	0.2999300	0.1062300	-1.0936000	-0.1926500	0.1598900	-0.9597800	0.7859500	-0.1505500	-1.0269600	0.2879000	-0.1502400	-1.0217300	-0.1881800	-0.2153600	-0.8109500	-0.2450200	-0.2370500	-0.8685900	-0.2371100	-0.2808000	-1.1176400	-0.2512600	-0.1845900	-0.8553900	-0.2615200	0.1939400	-0.8890600	-0.2389500	0.2419100	-1.1126900	-0.2516700	0.1443600
313	5.2000000	-0.9583200	1.3581300	-0.0423300	-0.9283400	1.3632200	0.1371800	-1.0203800	1.0414600	0.2018100	-0.9599900	0.7649100	0.2749300	-1.0030300	1.3588800	-0.2340500	-1.0320500	1.0479500	-0.3161600	-0.8708700	0.8407500	-0.3673000	-0.9024100	0.7947700	-0.0347800	-0.8961300	0.7952300	0.0685400	-1.0046800	0.3020400	0.1063300	-1.0935400	-0.1926200	0.1598800	-0.9656700	0.7853100	-0.1486600	-1.0267200	0.2836200	-0.1502200	-1.0216400	-0.1883400	-0.2153900	-0.8157700	-0.2462100	-0.2384000	-0.8687100	-0.2371600	-0.2808300	-1.1176300	-0.2510000	-0.1846000	-0.8488400	-0.2597200	0.1913700	-0.8889200	-0.2389800	0.2418600	-1.1127100	-0.2516600	0.1443800
314	5.2166667	-0.9583100	1.3582200	-0.0423100	-0.9283700	1.3632400	0.1372000	-1.0207200	1.0400000	0.2019100	-0.9599300	0.7649000	0.2749000	-1.0034000	1.3589700	-0.2341400	-1.0380400	1.0508400	-0.3176700	-0.8532400	0.8575100	-0.3734500	-0.9066000	0.7943500	-0.0358500	-0.8961500	0.7951900	0.0685300	-1.0049600	0.3035000	0.1064000	-1.0935100	-0.1926100	0.1598700	-0.9656800	0.7853800	-0.1486700	-1.0265500	0.2815400	-0.1502200	-1.0215700	-0.1885300	-0.2154100	-0.8230200	-0.2477600	-0.2402200	-0.8688100	-0.2371500	-0.2808700	-1.1174800	-0.2510500	-0.1846300	-0.8442700	-0.2585300	0.1896000	-0.8887600	-0.2389100	0.2418100	-1.1127700	-0.2517800	0.1443900
315	5.2333333	-0.9581700	1.3583100	-0.0422600	-0.9283800	1.3632700	0.1372300	-1.0206800	1.0399800	0.2019100	-0.9599000	0.7649500	0.2748700	-1.0038400	1.3590400	-0.2342600	-1.0447700	1.0536000	-0.3202200	-0.8236500	0.8720800	-0.3850900	-0.9085200	0.7941800	-0.0363600	-0.8961500	0.7951700	0.0685100	-1.0050700	0.3039300	0.1064200	-1.0935100	-0.1926100	0.1598700	-0.9598300	0.7859200	-0.1505500	-1.0266900	0.2832600	-0.1502000	-1.0216800	-0.1882000	-0.2153700	-0.8278500	-0.2493700	-0.2414900	-0.8688600	-0.2370500	-0.2809300	-1.1177000	-0.2513500	-0.1845900	-0.8431900	-0.2582400	0.1891900	-0.8887000	-0.2389000	0.2418000	-1.1127100	-0.2518900	0.1444100
316	5.2500000	-0.9581400	1.3583100	-0.0422200	-0.9284100	1.3633200	0.1372500	-1.0202600	1.0414500	0.2018300	-0.9598400	0.7649600	0.2748500	-1.0026500	1.3590800	-0.2339100	-1.0465000	1.0568300	-0.3230700	-0.7941600	0.8838000	-0.3977900	-0.9045100	0.7945400	-0.0353700	-0.8961800	0.7951900	0.0685200	-1.0050500	0.3039100	0.1064200	-1.0935300	-0.1926100	0.1598700	-0.9544100	0.7863900	-0.1522400	-1.0272400	0.2862400	-0.1501100	-1.0221700	-0.1867600	-0.2152400	-0.8270400	-0.2504500	-0.2423500	-0.8688900	-0.2368700	-0.2809900	-1.1183200	-0.2529900	-0.1844400	-0.8436900	-0.2583900	0.1893800	-0.8887200	-0.2389000	0.2418100	-1.1122700	-0.2515300	0.1444700
317	5.2666667	-0.9582100	1.3583600	-0.0422000	-0.9284700	1.3633100	0.1372700	-1.0198700	1.0426500	0.2017600	-0.9598000	0.7650300	0.2748400	-0.9977700	1.3591300	-0.2324900	-1.0425200	1.0621100	-0.3254500	-0.7778800	0.8951300	-0.4056700	-0.8985600	0.7950500	-0.0338700	-0.8962600	0.7952100	0.0685500	-1.0049100	0.3034600	0.1063800	-1.0935600	-0.1925500	0.1598700	-0.9527800	0.7866800	-0.1527200	-1.0279900	0.2873800	-0.1499500	-1.0228800	-0.1847700	-0.2150500	-0.8209300	-0.2513700	-0.2440300	-0.8688700	-0.2372200	-0.2809800	-1.1193800	-0.2550100	-0.1841900	-0.8441100	-0.2584500	0.1895100	-0.8886500	-0.2390000	0.2417800	-1.1117800	-0.2503300	0.1444500
